<?xml version="1.0" standalone="no"?>
<!DOCTYPE svg PUBLIC "-//W3C//DTD SVG 20010904//EN"
 "http://www.w3.org/TR/2001/REC-SVG-20010904/DTD/svg10.dtd">
<svg version="1.0" xmlns="http://www.w3.org/2000/svg"
 width="900.000000pt" height="900.000000pt" viewBox="0 0 900.000000 900.000000"
 preserveAspectRatio="xMidYMid meet">
<metadata>
Created by potrace 1.14, written by Peter Selinger 2001-2017
</metadata>
<g transform="translate(0.000000,900.000000) scale(0.100000,-0.100000)"
fill="#000000" stroke="none">
<path d="M4238 8995 c-2 -1 -48 -6 -103 -9 -55 -4 -109 -9 -120 -11 -11 -2
-45 -7 -75 -10 -76 -8 -292 -43 -370 -60 -46 -11 -65 -15 -86 -19 -66 -13
-276 -72 -384 -107 -260 -85 -581 -225 -800 -349 -129 -73 -350 -213 -350
-222 0 -4 -5 -8 -10 -8 -10 0 -59 -31 -86 -55 -6 -5 -22 -17 -34 -25 -12 -8
-28 -20 -34 -25 -6 -6 -38 -31 -71 -57 -33 -25 -71 -55 -85 -67 -14 -12 -45
-38 -70 -59 -92 -77 -380 -356 -380 -368 0 -3 -10 -15 -23 -28 -33 -35 -125
-140 -150 -172 -12 -16 -30 -38 -39 -49 -10 -11 -42 -54 -72 -95 -31 -41 -59
-79 -63 -85 -33 -42 -144 -214 -212 -328 -198 -334 -367 -737 -466 -1112 -14
-55 -31 -118 -37 -140 -5 -22 -12 -51 -15 -65 -2 -14 -10 -56 -18 -95 -20 -97
-23 -116 -39 -235 -35 -250 -41 -338 -41 -635 0 -267 7 -390 31 -560 3 -22 8
-56 10 -75 2 -19 9 -60 14 -90 5 -30 12 -71 15 -90 3 -19 17 -84 31 -145 14
-60 27 -119 30 -130 2 -11 15 -60 29 -110 14 -49 27 -94 28 -100 45 -182 263
-693 379 -888 17 -29 46 -79 66 -112 59 -100 162 -256 221 -335 31 -41 59 -79
63 -85 16 -21 152 -191 162 -201 6 -7 40 -44 76 -85 116 -129 345 -352 435
-421 17 -12 39 -31 50 -41 68 -64 527 -387 550 -387 3 0 34 -17 69 -39 94 -57
395 -204 526 -256 160 -65 382 -141 513 -175 20 -6 54 -14 75 -20 127 -34 385
-85 475 -94 17 -2 52 -7 77 -10 160 -23 299 -31 560 -31 301 0 410 8 710 51
43 6 306 59 343 69 9 3 25 7 35 9 174 40 499 150 695 235 26 11 49 21 52 21
13 2 321 160 404 208 80 46 331 207 366 234 6 5 42 32 80 60 39 28 84 63 101
77 17 14 48 40 69 56 21 17 54 44 72 60 18 17 53 48 79 70 108 94 301 293 411
423 35 43 73 87 83 98 11 12 20 24 20 27 0 4 10 17 23 31 37 40 93 118 182
253 47 70 89 133 95 140 5 7 10 15 10 17 0 3 19 36 42 73 45 73 201 376 235
458 12 28 36 86 54 130 17 44 37 94 44 110 39 94 144 440 170 564 2 9 11 49
19 88 9 40 18 87 21 105 3 18 10 58 15 88 15 88 19 112 25 170 3 30 8 69 10
85 27 216 28 729 1 940 -2 17 -7 57 -11 90 -11 98 -15 128 -25 175 -5 25 -12
61 -14 80 -4 28 -41 201 -61 281 -58 245 -182 588 -297 828 -28 58 -52 108
-53 111 -5 23 -160 293 -207 362 -21 31 -38 62 -38 67 0 6 -4 11 -10 11 -5 0
-10 7 -10 15 0 8 -4 15 -8 15 -4 0 -16 15 -27 33 -18 32 -153 217 -164 227 -3
3 -18 21 -32 40 -15 19 -36 45 -47 58 -11 13 -35 42 -54 64 -104 129 -403 425
-517 512 -14 11 -28 23 -31 26 -11 13 -200 160 -205 160 -4 0 -14 7 -23 16
-16 17 -327 224 -336 224 -2 0 -43 23 -91 50 -284 164 -658 319 -999 414 -189
53 -437 105 -576 121 -25 3 -56 7 -70 10 -14 2 -54 7 -90 10 -36 4 -85 9 -110
12 -48 5 -606 13 -612 8z"/>
</g>
</svg>
